<svg xmlns="http://www.w3.org/2000/svg" width="1200" height="630" viewBox="0 0 1200 630">
<defs><linearGradient id="g" x1="0" x2="1"><stop stop-color="#0f172a"/><stop offset="1" stop-color="#1d4ed8"/></linearGradient></defs>
<rect width="1200" height="630" fill="url(#g)"/>
<rect x="62" y="62" width="1076" height="506" rx="42" fill="rgba(255,255,255,.08)" stroke="#93c5fd" stroke-width="3"/>
<text x="96" y="140" fill="#38bdf8" font-family="Arial,sans-serif" font-size="34" font-weight="800" letter-spacing="6">CARD CLIMB MINI</text>
<text x="96" y="240" fill="#ffffff" font-family="Arial,sans-serif" font-size="78" font-weight="900">Daily 2026-05-25</text>
<text x="96" y="306" fill="#dbeafe" font-family="Arial,sans-serif" font-size="34" font-weight="700">Today's 15-minute card climb</text>
<g transform="translate(98 360)">
  <rect x="0" y="0" width="132" height="38" rx="12" fill="#020617"/><text x="66" y="25" text-anchor="middle" fill="#f8fafc" font-family="Arial" font-size="18" font-weight="800">battle</text><rect x="155" y="0" width="132" height="38" rx="12" fill="#020617"/><text x="221" y="25" text-anchor="middle" fill="#f8fafc" font-family="Arial" font-size="18" font-weight="800">choice</text><rect x="310" y="0" width="132" height="38" rx="12" fill="#020617"/><text x="376" y="25" text-anchor="middle" fill="#f8fafc" font-family="Arial" font-size="18" font-weight="800">battle</text><rect x="0" y="58" width="132" height="38" rx="12" fill="#020617"/><text x="66" y="83" text-anchor="middle" fill="#f8fafc" font-family="Arial" font-size="18" font-weight="800">elite</text><rect x="155" y="58" width="132" height="38" rx="12" fill="#020617"/><text x="221" y="83" text-anchor="middle" fill="#f8fafc" font-family="Arial" font-size="18" font-weight="800">rest</text><rect x="310" y="58" width="132" height="38" rx="12" fill="#020617"/><text x="376" y="83" text-anchor="middle" fill="#f8fafc" font-family="Arial" font-size="18" font-weight="800">battle</text><rect x="0" y="116" width="132" height="38" rx="12" fill="#020617"/><text x="66" y="141" text-anchor="middle" fill="#f8fafc" font-family="Arial" font-size="18" font-weight="800">treasure</text><rect x="155" y="116" width="132" height="38" rx="12" fill="#020617"/><text x="221" y="141" text-anchor="middle" fill="#f8fafc" font-family="Arial" font-size="18" font-weight="800">event</text><rect x="310" y="116" width="132" height="38" rx="12" fill="#020617"/><text x="376" y="141" text-anchor="middle" fill="#f8fafc" font-family="Arial" font-size="18" font-weight="800">boss</text>
</g>
<text x="780" y="405" fill="#facc15" font-family="Arial,sans-serif" font-size="42" font-weight="900">Seed</text>
<text x="780" y="462" fill="#ffffff" font-family="Arial,sans-serif" font-size="42" font-weight="900">daily-2026-05-25</text>
<text x="780" y="520" fill="#dbeafe" font-family="Arial,sans-serif" font-size="28" font-weight="700">Play this 15-minute card climb</text>
</svg>