<svg xmlns="http://www.w3.org/2000/svg" viewBox="0 0 512 512">
  <rect width="512" height="512" rx="112" fill="#111827"/>
  <rect x="72" y="72" width="368" height="368" rx="36" fill="#fff"/>
  <g stroke="#111827" stroke-width="8">
    <path d="M133 72v368M194 72v368M256 72v368M317 72v368M379 72v368M72 133h368M72 194h368M72 256h368M72 317h368M72 379h368"/>
    <path d="M72 194h368M72 317h368M256 72v368" stroke-width="14"/>
  </g>
  <path d="M214 125h82l-40 98 83-8-138 172 36-117-70 7 47-152z" fill="#2563eb"/>
  <circle cx="169" cy="163" r="28" fill="#facc15"/>
  <circle cx="342" cy="352" r="34" fill="#22c55e"/>
</svg>
